<svg width="48" height="48" viewBox="0 0 48 48" fill="none" xmlns="http://www.w3.org/2000/svg">
<path d="M46.08 0H1.92C0.858 0 0 0.858 0 1.92V46.08C0 47.142 0.858 48 1.92 48H46.08C47.142 48 48 47.142 48 46.08V1.92C48 0.858 47.142 0 46.08 0ZM44.16 44.16H33.114V29.412H39.354L40.29 22.17H33.114V17.544C33.114 15.444 33.696 14.016 36.702 14.016H40.536V7.536C39.87 7.446 37.596 7.248 34.944 7.248C29.412 7.248 25.626 10.626 25.626 16.824V22.164H19.374V29.406H25.632V44.16H3.84V3.84H44.16V44.16Z" fill="#6A4162"/>
</svg>
