<svg width="48" height="48" viewBox="0 0 48 48" fill="none" xmlns="http://www.w3.org/2000/svg">
<path d="M23.9935 11.6857C17.1791 11.6857 11.6795 17.1854 11.6795 24C11.6795 30.8146 17.1791 36.3143 23.9935 36.3143C30.808 36.3143 36.3076 30.8146 36.3076 24C36.3076 17.1854 30.808 11.6857 23.9935 11.6857ZM23.9935 32.0034C19.5867 32.0034 15.9903 28.407 15.9903 24C15.9903 19.593 19.5867 15.9966 23.9935 15.9966C28.4004 15.9966 31.9968 19.593 31.9968 24C31.9968 28.407 28.4004 32.0034 23.9935 32.0034ZM36.812 8.3114C35.2209 8.3114 33.9361 9.59627 33.9361 11.1873C33.9361 12.7784 35.2209 14.0633 36.812 14.0633C38.403 14.0633 39.6879 12.7844 39.6879 11.1873C39.6883 10.8095 39.6143 10.4353 39.4699 10.0862C39.3256 9.73707 39.1137 9.41984 38.8466 9.15269C38.5794 8.88554 38.2622 8.67371 37.9131 8.52935C37.564 8.38499 37.1898 8.31093 36.812 8.3114ZM47.9973 24C47.9973 20.6858 48.0273 17.4015 47.8412 14.0933C47.6551 10.2507 46.7785 6.84041 43.9687 4.03051C41.1528 1.2146 37.7486 0.344017 33.9061 0.157891C30.5919 -0.0282345 27.3077 0.00178587 23.9996 0.00178587C20.6854 0.00178587 17.4012 -0.0282345 14.093 0.157891C10.2505 0.344017 6.84028 1.22061 4.03043 4.03051C1.21458 6.84641 0.344011 10.2507 0.157888 14.0933C-0.028234 17.4075 0.00178584 20.6918 0.00178584 24C0.00178584 27.3082 -0.028234 30.5985 0.157888 33.9067C0.344011 37.7493 1.22059 41.1596 4.03043 43.9695C6.84628 46.7854 10.2505 47.656 14.093 47.8421C17.4072 48.0282 20.6914 47.9982 23.9996 47.9982C27.3137 47.9982 30.5979 48.0282 33.9061 47.8421C37.7486 47.656 41.1588 46.7794 43.9687 43.9695C46.7845 41.1536 47.6551 37.7493 47.8412 33.9067C48.0333 30.5985 47.9973 27.3142 47.9973 24ZM42.7138 38.1576C42.2756 39.2503 41.7472 40.0669 40.9007 40.9074C40.0541 41.754 39.2436 42.2823 38.1509 42.7206C34.9928 43.9755 27.4938 43.6933 23.9935 43.6933C20.4932 43.6933 12.9883 43.9755 9.83024 42.7267C8.73753 42.2884 7.92099 41.76 7.08044 40.9134C6.23388 40.0669 5.70553 39.2563 5.26725 38.1636C4.01843 34.9994 4.30061 27.5004 4.30061 24C4.30061 20.4996 4.01843 12.9946 5.26725 9.83643C5.70553 8.74369 6.23388 7.92714 7.08044 7.08657C7.92699 6.246 8.73753 5.71164 9.83024 5.27335C12.9883 4.0245 20.4932 4.30669 23.9935 4.30669C27.4938 4.30669 34.9988 4.0245 38.1569 5.27335C39.2496 5.71164 40.0661 6.24 40.9067 7.08657C41.7532 7.93314 42.2816 8.74369 42.7199 9.83643C43.9687 12.9946 43.6865 20.4996 43.6865 24C43.6865 27.5004 43.9687 34.9994 42.7138 38.1576Z" fill="#6A4162"/>
</svg>
