<svg width="36" height="37" viewBox="0 0 36 37" fill="none" xmlns="http://www.w3.org/2000/svg">
<path d="M35.8918 34.079L24.2054 22.3926C26.0189 20.0481 26.9999 17.1816 26.9999 14.1666C26.9999 10.5576 25.5914 7.17366 23.0444 4.62217C20.4974 2.07068 17.1044 0.666687 13.4999 0.666687C9.89546 0.666687 6.50247 2.07518 3.95548 4.62217C1.40399 7.16916 0 10.5576 0 14.1666C0 17.7711 1.40849 21.1641 3.95548 23.7111C6.50247 26.2626 9.89096 27.6666 13.4999 27.6666C16.5149 27.6666 19.3769 26.6856 21.7214 24.8766L33.4079 36.5585C33.4421 36.5928 33.4828 36.62 33.5276 36.6386C33.5724 36.6571 33.6204 36.6667 33.6689 36.6667C33.7173 36.6667 33.7653 36.6571 33.8101 36.6386C33.8549 36.62 33.8956 36.5928 33.9299 36.5585L35.8918 34.601C35.9261 34.5668 35.9533 34.5261 35.9719 34.4813C35.9904 34.4365 36 34.3885 36 34.34C36 34.2916 35.9904 34.2436 35.9719 34.1988C35.9533 34.154 35.9261 34.1133 35.8918 34.079ZM20.6279 21.2946C18.7199 23.1981 16.1909 24.2466 13.4999 24.2466C10.809 24.2466 8.27996 23.1981 6.37197 21.2946C4.46848 19.3866 3.41999 16.8576 3.41999 14.1666C3.41999 11.4756 4.46848 8.94215 6.37197 7.03866C8.27996 5.13517 10.809 4.08667 13.4999 4.08667C16.1909 4.08667 18.7244 5.13067 20.6279 7.03866C22.5314 8.94665 23.5799 11.4756 23.5799 14.1666C23.5799 16.8576 22.5314 19.3911 20.6279 21.2946Z" fill="#3A2436"/>
</svg>
